<mxfile host="app.diagrams.net" modified="2023-07-19T00:22:40.344Z" agent="Mozilla/5.0 (Windows NT 10.0; Win64; x64) AppleWebKit/537.36 (KHTML, like Gecko) Chrome/114.0.0.0 Safari/537.36" version="21.5.2" etag="ZHaovTmi9cnshnZJaybO" type="github">
  <diagram name="페이지-1" id="_z0zPhZ-Prp3cjtxvZ6h">
    <mxGraphModel>
      <root>
        <mxCell id="0" />
        <mxCell id="1" parent="0" />
      </root>
    </mxGraphModel>
  </diagram>
</mxfile>
